<svg width="12" height="7" viewBox="0 0 12 7" fill="none" xmlns="http://www.w3.org/2000/svg">
<path d="M11.7994 0.199468C11.9154 0.318625 11.9861 0.478164 11.9982 0.648152C12.0102 0.818141 11.9627 0.986897 11.8647 1.12276L11.81 1.18926L6.59868 6.7892C6.48652 6.90973 6.33672 6.98373 6.17678 6.99762C6.01684 7.01151 5.85749 6.96435 5.72801 6.8648L5.66401 6.8088L0.20932 1.40276C0.0859187 1.28059 0.0115036 1.11363 0.00122604 0.935873C-0.00905153 0.758118 0.0455819 0.582932 0.154001 0.445987C0.262421 0.309041 0.416475 0.220632 0.584795 0.198761C0.753116 0.17689 0.923048 0.223204 1.05999 0.328269L1.12399 0.384266L6.10334 5.31852L10.8567 0.210667C10.9702 0.0887771 11.1221 0.014555 11.284 0.00192499C11.4459 -0.010705 11.6066 0.0391254 11.736 0.142068L11.7994 0.199468Z" fill="#8E919E"/>
</svg>
