<svg data-v-6cac2965="" xmlns="http://www.w3.org/2000/svg" xmlns:xlink="http://www.w3.org/1999/xlink" fill="none" version="1.1" width="16" height="16" viewBox="0 0 16 16" class="ng-close"><defs data-v-6cac2965=""><clipPath data-v-6cac2965="" id="master_svg0_38_546"><rect data-v-6cac2965="" x="0" y="0" width="16" height="16" rx="0"></rect></clipPath></defs> <g data-v-6cac2965="" clip-path="url(#master_svg0_38_546)"><g data-v-6cac2965=""><path data-v-6cac2965="" d="M8.78570796875,7.9812567236328125L13.39501796875,3.3958397236328124C13.61301796875,3.1789947236328127,13.61411796875,2.8276007236328127,13.39721796875,2.6096367236328124C13.17981796875,2.3911292236328126,12.82901796875,2.3905694236328126,12.61101796875,2.6074147236328127L8.00060796875,7.193396723632812L3.43020596875,2.6090937236328124C3.21391996875,2.3922484236328123,2.86196696875,2.3911292236328126,2.64400296875,2.6079747236328124C2.42659806875,2.8248197236328125,2.42605446875,3.1767727236328125,2.64288396875,3.3947367236328123L7.21219796875,7.977936723632813L2.60508496875,12.560566723632812C2.38712096875,12.777366723632813,2.38601756875,13.128766723632813,2.6028629687500002,13.346766723632813C2.7112849687500002,13.455766723632813,2.85417996875,13.510766723632813,2.99707496875,13.510766723632813C3.13885096875,13.510766723632813,3.28064296875,13.456866723632812,3.3890659687499998,13.348966723632813L7.99728796875,8.765236723632812L12.60941796875,13.391266723632812C12.71781796875,13.500266723632812,12.86011796875,13.554766723632813,13.00301796875,13.554766723632813C13.14541796875,13.554766723632813,13.28721796875,13.500266723632812,13.39561796875,13.392366723632813C13.61301796875,13.175566723632812,13.61351796875,12.824166723632812,13.39671796875,12.606166723632812L8.78570796875,7.9812567236328125Z" fill="#212427" fill-opacity="0.501960813999176"></path></g></g></svg>