<svg width="132" height="114" viewBox="0 0 132 114" fill="none" xmlns="http://www.w3.org/2000/svg">
<g clip-path="url(#clip0_236_144)">
<path d="M6.71117 0.324979C13.5611 0.0463637 18.0506 -0.046508 20.1796 -7.21392e-05C24.2063 0.139235 27.5849 1.02152 30.3619 2.69321C31.1025 3.15757 32.0744 4.17915 32.5373 4.78282C32.815 5.15431 33.972 7.01174 34.2035 7.42966C37.1656 11.8875 38.0912 16.4847 35.3605 20.9425C34.3423 22.5678 33.1389 23.6822 31.7042 24.2394C27.4461 26.004 23.4194 27.1185 19.6705 27.5828C18.606 27.7221 18.1894 28.2329 18.3283 29.4867C18.5134 31.9014 19.2077 40.817 19.4391 43.3246C19.5779 44.6712 19.0225 44.9498 17.8192 44.9963C15.2736 44.9963 13.052 44.9963 11.1544 44.9498C9.85843 44.9498 6.15577 44.7641 0.138938 44.4855C-0.231328 44.114 0.416638 42.7209 0.416638 42.1637C0.925754 32.5979 0.879471 31.437 1.0646 20.4317C1.20345 12.3983 1.48115 6.87243 1.48115 1.57875C1.48115 1.57875 6.10948 0.324979 6.71117 0.324979ZM19.4854 17.2741C21.0127 16.3918 21.383 15.7417 22.5863 14.1164C23.3732 13.1413 22.7715 12.1661 21.6144 12.0732C19.9945 11.9804 18.1431 12.0268 16.1067 12.2126C15.6901 12.2126 15.0884 12.9091 15.0422 13.2806C15.0422 13.5592 14.9959 14.813 14.9959 17.0419C16.7084 17.6455 18.0506 18.0635 19.5316 17.2276L19.4854 17.2741Z" fill="#848AC4"/>
<path d="M60.4924 31.9013C60.4924 31.9013 60.1685 31.9013 59.6131 31.9942C59.7982 35.2911 63.0843 36.5913 66.787 35.8948C67.2961 35.7555 67.9441 35.0125 68.1292 34.5017C68.3143 33.898 68.7309 33.6194 69.3326 33.6194C72.017 33.5266 74.0997 33.4801 75.6734 33.5266C75.9048 33.573 76.4139 34.2231 76.3676 34.5481C75.9511 40.074 74.8866 42.1172 70.6285 44.0675C70.2582 44.2532 69.9342 44.3461 69.7028 44.3461C69.2863 44.3461 67.7126 44.5783 65.0745 44.9962C62.3901 45.3677 60.3536 45.4606 58.9651 45.2284C52.0689 44.1139 47.3017 41.1885 45.4041 35.2447C45.0338 33.8052 44.1544 32.5514 44.2933 30.694C45.0801 25.0288 46.8389 20.7103 49.5233 17.7848C52.9483 14.0699 56.9749 12.2125 61.6495 12.1196C62.4826 12.1196 64.4265 12.2125 67.4349 12.4911C69.4714 12.7233 71.1376 14.1164 72.5261 16.0667C74.0997 18.2956 74.5626 18.76 75.6271 21.2675C76.6916 23.775 76.6453 26.329 76.5065 29.7653C76.5065 30.6011 76.4602 31.1583 76.4139 31.4834C76.4139 31.762 75.8122 32.1799 75.5808 32.1799C72.4798 32.1799 64.2414 31.9942 60.585 31.9013H60.4924ZM64.8431 25.9575C66.0464 25.8646 66.7407 25.6789 66.9258 25.4003C67.1572 25.1217 67.1572 24.4251 67.0184 23.2178C67.0184 22.707 66.463 22.1498 66.139 21.964C65.9539 21.8712 64.7042 21.4068 62.3901 20.571C61.5107 20.2459 60.6776 20.4781 59.9833 21.3139C59.0114 22.4284 58.5485 23.9608 58.5948 25.9111H64.8431V25.9575Z" fill="#848AC4"/>
<path d="M84.0968 24.4717C81.9677 24.8432 81.366 24.3789 81.2735 22.475C81.0883 19.921 81.0884 17.6457 81.1809 15.6489C81.1809 14.5809 82.0603 13.8844 82.986 13.745C83.2637 13.745 85.0224 13.5593 88.1697 13.2342C88.4474 11.5161 88.6325 10.5874 88.6325 10.4945C88.7714 9.89087 89.4656 6.31531 89.5582 5.75808C89.697 5.0151 90.1599 4.50431 90.993 4.27213C93.77 3.52916 95.9916 3.76134 97.7503 4.92223C98.3983 5.29372 98.676 5.94382 98.676 6.73323C98.676 7.24402 98.7686 9.10146 98.9537 12.2591C99 13.0021 99.4628 13.3271 100.342 13.1878C101.546 12.9556 102.795 12.8163 104.045 12.7699C105.942 12.7235 106.961 13.6057 107.053 15.5096C107.1 16.5312 107.1 18.4351 107.007 21.1748C107.007 22.1499 105.248 22.8 104.23 22.8929C103.952 22.8929 103.027 23.0786 101.36 23.4037C100.574 23.543 100.157 24.0074 100.157 24.7968C100.203 27.6294 100.342 30.5084 100.435 33.4803C100.435 34.5019 101.129 35.152 102.055 35.2448C102.471 35.3377 103.212 35.152 104.23 34.6412C105.248 34.1304 106.081 33.8518 106.637 33.8518C108.396 33.8982 108.627 33.9911 108.581 35.8021C108.534 38.3096 107.979 42.1638 106.266 42.9996C103.397 44.4391 100.111 45.3214 96.3618 45.6465C94.0477 45.8322 92.798 45.9251 92.6129 45.9251C90.669 45.9251 89.5582 44.9964 89.2805 43.1854C88.216 36.9165 87.892 33.4803 87.9846 26.9328C87.9846 25.5398 87.9846 24.5182 87.9846 23.8216C85.8092 24.1467 84.5133 24.3324 84.0505 24.4253L84.0968 24.4717Z" fill="#848AC4"/>
<path d="M1.57374 77.9192C1.57374 77.4084 1.85144 75.551 1.85144 74.9937C1.944 74.3436 2.08285 73.7864 2.4994 73.4614C2.91595 73.1363 3.10109 72.997 3.79533 72.8113C4.11932 72.7184 4.4433 72.5791 4.76728 72.4862C8.84022 71.2789 13.0057 71.2789 17.3101 72.5326C23.512 74.3436 27.261 77.9192 28.5106 83.1664C29.5751 87.485 29.0197 91.107 26.8907 93.986C24.9931 96.54 22.1698 97.933 18.5134 98.2581C16.6158 98.3974 15.6901 99.5119 15.7827 101.694C15.7827 101.834 15.7827 106.895 15.7827 107.081C15.7827 108.01 15.8753 109.171 15.9216 110.564C15.9678 112.003 15.3662 112.839 14.1165 113.071C11.8949 113.443 10.7378 113.675 10.5527 113.675C10.3676 113.675 7.45172 113.814 1.80515 114C1.06462 114.046 0.0463867 113.489 0.0463867 112.746C0.601786 103.552 1.34232 88.8316 1.62002 77.9192H1.57374ZM12.4966 84.4667C12.1263 84.4667 11.6172 84.5595 10.9692 84.6988C10.3213 84.8381 10.275 85.7204 10.275 86.9742C10.275 87.6707 10.3213 88.1351 10.3213 88.4137C10.3213 88.7852 10.5527 89.8068 10.7378 89.9461C10.923 90.1318 11.8486 90.2247 12.2652 90.2247C12.5429 90.2247 13.0057 90.1783 13.6537 90.0854C15.7827 89.9461 16.6621 89.0174 16.6621 86.6956C17.2175 85.1168 14.4868 84.2345 12.4503 84.4202L12.4966 84.4667Z" fill="#848AC4"/>
<path d="M39.2945 61.3417C42.3492 60.9702 43.6915 63.4778 43.6915 66.7747C43.6915 68.0285 43.5526 69.0501 43.3212 70.211C43.2286 70.7682 43.1823 71.1397 43.1823 71.279C43.0435 72.1148 42.3955 72.5327 41.2384 72.5792C38.554 72.6721 36.6564 72.7185 35.6382 72.7185C35.129 72.6721 34.5736 72.2077 34.3422 71.8826C33 69.5609 32.5835 67.0533 33.0926 64.4529C33.0926 64.4529 33.1389 63.8957 33.2314 62.8277C34.9902 62.4097 37.3044 61.6203 39.202 61.3417H39.2945ZM43.9692 78.6623C45.7742 79.2659 46.6999 80.4268 46.6999 82.2378C46.6999 89.9462 46.6999 96.215 46.6999 101.044C46.6536 104.016 46.0056 104.434 43.2286 104.806C42.5344 104.899 39.8962 105.456 39.1557 105.502C38.0449 105.688 36.7027 103.97 36.2861 103.273C35.2216 101.602 35.0828 99.512 34.9902 96.9116C34.9902 96.6794 34.9439 96.4936 34.9439 96.3543C34.8976 94.4505 34.7588 90.457 34.6662 84.3275V78.6158C37.6746 77.5478 40.7756 77.5478 44.0617 78.6158L43.9692 78.6623Z" fill="#848AC4"/>
<path d="M70.1656 76.9905C68.6383 77.1298 67.944 78.4764 67.0184 79.2194C64.6579 81.4483 63.7322 84.1881 64.1951 87.485C64.4728 89.5282 65.7224 90.9677 67.8515 91.7571C70.5359 92.7322 72.8038 92.6394 74.6551 91.4785C75.3031 91.0606 75.951 90.3176 76.599 89.3424C76.923 88.8316 77.0155 88.5995 77.8024 88.8316C78.5429 89.1102 79.9314 89.621 81.9679 90.3176C83.2638 90.7355 83.7729 91.1534 83.4952 92.8251C83.0787 95.2862 82.0604 97.283 80.3942 98.8153C78.728 100.348 76.7841 101.184 74.6551 101.369C69.3325 101.787 64.6116 100.998 60.3998 99.0011C56.6972 97.2365 54.4756 94.1718 53.6425 89.8997C52.9482 86.0919 53.1334 82.4699 54.1516 78.9408C55.5864 74.1115 58.0857 70.7681 61.6032 68.8178C62.9454 68.0748 64.1488 67.564 65.2133 67.239C66.2778 66.9139 67.3886 66.8675 68.592 67.0532C71.1838 67.5176 74.3774 68.3534 76.6916 69.0964C77.6635 69.375 78.4503 70.2109 79.052 71.5111C79.0983 71.6504 79.5611 72.672 80.4405 74.5758L75.5345 79.173C74.0071 77.4548 72.2021 76.7119 70.2119 76.8976L70.1656 76.9905Z" fill="#848AC4"/>
<path d="M89.188 101.834C89.1418 103.227 89.188 103.366 90.5302 103.32C91.6873 103.273 93.3072 103.227 95.39 103.18H98.4447C98.5373 101.369 98.6761 98.9547 98.815 95.9364L99.5555 96.1686C99.8332 96.4472 100.481 97.0044 101.361 97.7938C102.24 98.5832 102.934 99.2798 103.351 99.837C104.323 101.184 105.665 101.648 107.146 102.437C108.72 103.273 110.016 102.995 110.941 101.694C111.913 100.348 113.764 98.769 114.922 97.5617C115.199 97.3295 115.292 97.1437 115.292 96.958C115.292 96.7722 115.107 96.5865 114.783 96.4008C114.459 96.215 113.996 95.89 113.394 95.4256L112.098 94.4504C109.784 92.9181 108.025 91.3857 106.868 89.8069C106.683 89.5747 106.359 89.4818 106.081 89.6211L89.0955 99.094C88.9103 99.5584 89.0955 101.416 89.0955 101.741L89.188 101.834Z" fill="#848AC4"/>
<path d="M131.491 71.7898C128.992 68.4464 127.881 67.7963 125.011 65.2888C124.826 65.1494 124.132 64.9637 123.808 65.1494C118.023 69.0036 104.693 77.8264 99.6019 81.0305C99.7407 79.7303 100.25 78.1979 100.157 76.8048C100.111 72.5327 100.389 75.0867 101.037 70.3503C101.222 69.1429 100.898 68.9107 99.7407 68.9107C96.8249 68.9107 94.881 68.9107 93.909 68.9107C93.585 68.9107 91.9188 69.3287 91.6874 69.4215C91.5949 69.4215 91.2709 69.3287 91.132 69.3287C90.6229 69.3287 90.6229 69.468 90.6229 69.9323C90.6229 70.0716 90.7155 70.7217 90.6692 70.8611C90.3915 75.5046 90.1601 73.09 89.8824 77.6871C89.7435 78.7087 89.327 85.9991 89.2807 87.2065C89.2344 88.0888 89.1881 93.336 89.1418 96.958C89.1418 97.3295 89.5584 97.5617 89.8824 97.3759L106.637 88.0423C110.247 86.092 131.167 73.8329 131.167 73.8329C132.185 73.2293 132.185 72.7649 131.445 71.7898H131.491Z" fill="#F2A464"/>
</g>
<defs>
<clipPath id="clip0_236_144">
<rect width="132" height="114" fill="white"/>
</clipPath>
</defs>
</svg>
