<svg width="132" height="114" viewBox="0 0 132 114" fill="none" xmlns="http://www.w3.org/2000/svg">
<path d="M6.71105 0.325223C13.561 0.0466079 18.0505 -0.0462638 20.1795 0.000172001C24.2061 0.13948 27.5848 1.02176 30.3618 2.69345C31.1023 3.15781 32.0743 4.1794 32.5371 4.78306C32.8148 5.15455 33.9719 7.01198 34.2033 7.42991C37.1655 11.8877 38.0911 16.4849 35.3604 20.9427C34.3422 22.568 33.1388 23.6825 31.704 24.2397C27.446 26.0042 23.4193 27.1187 19.6704 27.5831C18.6059 27.7224 18.1893 28.2332 18.3282 29.4869C18.5133 31.9016 19.2075 40.8173 19.439 43.3248C19.5778 44.6715 19.0224 44.9501 17.819 44.9965C15.2735 44.9965 13.0519 44.9965 11.1542 44.9501C9.85831 44.9501 6.15565 44.7643 0.138816 44.4857C-0.231451 44.1142 0.416516 42.7212 0.416516 42.1639C0.925632 32.5981 0.879349 31.4372 1.06448 20.4319C1.20333 12.3985 1.48103 6.87268 1.48103 1.57899C1.48103 1.57899 6.10936 0.325223 6.71105 0.325223ZM19.4852 17.2743C21.0126 16.392 21.3829 15.7419 22.5862 14.1167C23.373 13.1415 22.7714 12.1664 21.6143 12.0735C19.9944 11.9806 18.143 12.0271 16.1066 12.2128C15.69 12.2128 15.0883 12.9093 15.042 13.2808C15.042 13.5594 14.9958 14.8132 14.9958 17.0421C16.7082 17.6458 18.0505 18.0637 19.5315 17.2279L19.4852 17.2743Z" fill="#848AC4"/>
<path d="M60.4922 31.9018C60.4922 31.9018 60.1682 31.9018 59.6128 31.9947C59.798 35.2916 63.0841 36.5918 66.7867 35.8953C67.2959 35.756 67.9438 35.013 68.129 34.5022C68.3141 33.8985 68.7306 33.6199 69.3323 33.6199C72.0167 33.527 74.0995 33.4806 75.6731 33.527C75.9045 33.5735 76.4137 34.2236 76.3674 34.5486C75.9508 40.0745 74.8863 42.1177 70.6283 44.068C70.258 44.2537 69.934 44.3466 69.7026 44.3466C69.286 44.3466 67.7124 44.5788 65.0743 44.9967C62.3898 45.3682 60.3534 45.4611 58.9649 45.2289C52.0686 44.1144 47.3015 41.189 45.4038 35.2452C45.0336 33.8057 44.1542 32.5519 44.293 30.6945C45.0799 25.0293 46.8386 20.7107 49.5231 17.7853C52.948 14.0704 56.9747 12.213 61.6493 12.1201C62.4824 12.1201 64.4263 12.213 67.4347 12.4916C69.4712 12.7238 71.1374 14.1169 72.5259 16.0672C74.0995 18.2961 74.5623 18.7604 75.6268 21.268C76.6914 23.7755 76.6451 26.3295 76.5062 29.7657C76.5062 30.6016 76.4599 31.1588 76.4137 31.4839C76.4137 31.7625 75.812 32.1804 75.5806 32.1804C72.4796 32.1804 64.2412 31.9947 60.5848 31.9018H60.4922ZM64.8428 25.958C66.0462 25.8651 66.7405 25.6794 66.9256 25.4008C67.157 25.1222 67.157 24.4256 67.0182 23.2183C67.0182 22.7075 66.4628 22.1503 66.1388 21.9645C65.9536 21.8716 64.704 21.4073 62.3898 20.5714C61.5104 20.2464 60.6773 20.4786 59.9831 21.3144C59.0111 22.4289 58.5483 23.9613 58.5946 25.9116H64.8428V25.958Z" fill="#848AC4"/>
<path d="M84.0968 24.472C81.9677 24.8435 81.366 24.3791 81.2735 22.4752C81.0883 19.9213 81.0884 17.6459 81.1809 15.6492C81.1809 14.5811 82.0603 13.8846 82.986 13.7453C83.2637 13.7453 85.0224 13.5595 88.1697 13.2345C88.4474 11.5164 88.6325 10.5876 88.6325 10.4948C88.7714 9.89111 89.4656 6.31555 89.5582 5.75832C89.697 5.01535 90.1599 4.50455 90.993 4.27237C93.77 3.5294 95.9916 3.76158 97.7503 4.92248C98.3983 5.29396 98.676 5.94406 98.676 6.73347C98.676 7.24427 98.7686 9.1017 98.9537 12.2593C99 13.0023 99.4628 13.3274 100.342 13.1881C101.546 12.9559 102.795 12.8166 104.045 12.7701C105.942 12.7237 106.961 13.606 107.053 15.5099C107.1 16.5314 107.1 18.4353 107.007 21.175C107.007 22.1502 105.248 22.8003 104.23 22.8931C103.952 22.8931 103.027 23.0789 101.36 23.4039C100.574 23.5433 100.157 24.0076 100.157 24.797C100.203 27.6296 100.342 30.5086 100.435 33.4805C100.435 34.5021 101.129 35.1522 102.055 35.2451C102.471 35.338 103.212 35.1522 104.23 34.6414C105.248 34.1306 106.081 33.852 106.637 33.852C108.396 33.8984 108.627 33.9913 108.581 35.8023C108.534 38.3099 107.979 42.164 106.266 42.9999C103.397 44.4394 100.111 45.3217 96.3618 45.6467C94.0477 45.8325 92.798 45.9253 92.6129 45.9253C90.669 45.9253 89.5582 44.9966 89.2805 43.1856C88.216 36.9168 87.892 33.4805 87.9846 26.9331C87.9846 25.54 87.9846 24.5184 87.9846 23.8219C85.8092 24.1469 84.5133 24.3327 84.0505 24.4255L84.0968 24.472Z" fill="#848AC4"/>
<path d="M1.57361 77.9197C1.57361 77.4089 1.85131 75.5515 1.85131 74.9942C1.94388 74.3441 2.08273 73.7869 2.49928 73.4618C2.91583 73.1368 3.10096 72.9975 3.79521 72.8117C4.1192 72.7189 4.44318 72.5796 4.76716 72.4867C8.84009 71.2794 13.0056 71.2794 17.3099 72.5331C23.5119 74.3441 27.2609 77.9197 28.5105 83.1669C29.575 87.4855 29.0196 91.1075 26.8906 93.9865C24.993 96.5405 22.1697 97.9335 18.5133 98.2586C16.6157 98.3979 15.69 99.5124 15.7826 101.695C15.7826 101.834 15.7826 106.896 15.7826 107.081C15.7826 108.01 15.8752 109.171 15.9214 110.564C15.9677 112.004 15.366 112.839 14.1164 113.072C11.8948 113.443 10.7377 113.675 10.5526 113.675C10.3674 113.675 7.45159 113.815 1.80503 114C1.0645 114.047 0.0462646 113.49 0.0462646 112.747C0.601664 103.552 1.3422 88.8321 1.6199 77.9197H1.57361ZM12.4965 84.4671C12.1262 84.4671 11.6171 84.56 10.9691 84.6993C10.3212 84.8386 10.2749 85.7209 10.2749 86.9747C10.2749 87.6712 10.3212 88.1356 10.3212 88.4142C10.3212 88.7857 10.5526 89.8073 10.7377 89.9466C10.9228 90.1323 11.8485 90.2252 12.2651 90.2252C12.5428 90.2252 13.0056 90.1787 13.6536 90.0859C15.7826 89.9466 16.662 89.0179 16.662 86.6961C17.2174 85.1172 14.4867 84.235 12.4502 84.4207L12.4965 84.4671Z" fill="#848AC4"/>
<path d="M39.2945 61.3417C42.3492 60.9702 43.6915 63.4778 43.6915 66.7747C43.6915 68.0285 43.5526 69.0501 43.3212 70.211C43.2286 70.7682 43.1823 71.1397 43.1823 71.279C43.0435 72.1148 42.3955 72.5327 41.2384 72.5792C38.554 72.6721 36.6564 72.7185 35.6382 72.7185C35.129 72.6721 34.5736 72.2077 34.3422 71.8826C33 69.5609 32.5835 67.0533 33.0926 64.4529C33.0926 64.4529 33.1389 63.8957 33.2314 62.8277C34.9902 62.4097 37.3044 61.6203 39.202 61.3417H39.2945ZM43.9692 78.6623C45.7742 79.2659 46.6999 80.4268 46.6999 82.2378C46.6999 89.9462 46.6999 96.215 46.6999 101.044C46.6536 104.016 46.0056 104.434 43.2286 104.806C42.5344 104.899 39.8962 105.456 39.1557 105.502C38.0449 105.688 36.7027 103.97 36.2861 103.273C35.2216 101.602 35.0828 99.512 34.9902 96.9116C34.9902 96.6794 34.9439 96.4936 34.9439 96.3543C34.8976 94.4505 34.7588 90.457 34.6662 84.3275V78.6158C37.6746 77.5478 40.7756 77.5478 44.0617 78.6158L43.9692 78.6623Z" fill="#848AC4"/>
<path d="M70.1655 76.9907C68.6381 77.13 67.9439 78.4767 67.0182 79.2197C64.6578 81.4486 63.7321 84.1883 64.1949 87.4852C64.4726 89.5284 65.7223 90.9679 67.8513 91.7573C70.5358 92.7325 72.8036 92.6396 74.655 91.4787C75.3029 91.0608 75.9509 90.3178 76.5989 89.3427C76.9229 88.8319 77.0154 88.5997 77.8022 88.8319C78.5428 89.1105 79.9313 89.6213 81.9677 90.3178C83.2637 90.7358 83.7728 91.1537 83.4951 92.8254C83.0785 95.2865 82.0603 97.2832 80.3941 98.8156C78.7279 100.348 76.784 101.184 74.655 101.37C69.3324 101.787 64.6115 100.998 60.3997 99.0013C56.6971 97.2368 54.4755 94.172 53.6424 89.8999C52.9481 86.0922 53.1332 82.4702 54.1515 78.941C55.5863 74.1117 58.0856 70.7683 61.6031 68.818C62.9453 68.0751 64.1487 67.5643 65.2132 67.2392C66.2777 66.9142 67.3885 66.8677 68.5919 67.0535C71.1837 67.5178 74.3773 68.3537 76.6914 69.0966C77.6634 69.3753 78.4502 70.2111 79.0519 71.5113C79.0982 71.6506 79.561 72.6722 80.4404 74.5761L75.5344 79.1732C74.007 77.4551 72.202 76.7121 70.2118 76.8979L70.1655 76.9907Z" fill="#848AC4"/>
<path d="M89.1879 101.834C89.1416 103.227 89.1879 103.366 90.5301 103.32C91.6872 103.273 93.3071 103.227 95.3899 103.18H98.4446C98.5371 101.369 98.676 98.9547 98.8148 95.9364L99.5554 96.1686C99.8331 96.4472 100.481 97.0044 101.36 97.7938C102.24 98.5832 102.934 99.2798 103.351 99.837C104.323 101.184 105.665 101.648 107.146 102.437C108.719 103.273 110.015 102.995 110.941 101.694C111.913 100.348 113.764 98.769 114.921 97.5617C115.199 97.3295 115.292 97.1437 115.292 96.958C115.292 96.7722 115.107 96.5865 114.783 96.4008C114.459 96.215 113.996 95.89 113.394 95.4256L112.098 94.4504C109.784 92.9181 108.025 91.3857 106.868 89.8069C106.683 89.5747 106.359 89.4818 106.081 89.6211L89.0953 99.094C88.9102 99.5584 89.0953 101.416 89.0953 101.741L89.1879 101.834Z" fill="#848AC4"/>
<path d="M131.491 71.7898C128.992 68.4464 127.881 67.7963 125.011 65.2888C124.826 65.1494 124.132 64.9637 123.808 65.1494C118.022 69.0036 104.693 77.8264 99.6016 81.0305C99.7405 79.7303 100.25 78.1979 100.157 76.8048C100.111 72.5327 100.388 75.0867 101.036 70.3503C101.222 69.1429 100.898 68.9107 99.7405 68.9107C96.8246 68.9107 94.8807 68.9107 93.9088 68.9107C93.5848 68.9107 91.9186 69.3287 91.6872 69.4215C91.5946 69.4215 91.2706 69.3287 91.1318 69.3287C90.6227 69.3287 90.6227 69.468 90.6227 69.9323C90.6227 70.0716 90.7152 70.7217 90.669 70.8611C90.3913 75.5046 90.1598 73.09 89.8821 77.6871C89.7433 78.7087 89.3267 85.9991 89.2805 87.2065C89.2342 88.0888 89.1879 93.336 89.1416 96.958C89.1416 97.3295 89.5582 97.5617 89.8821 97.3759L106.637 88.0423C110.247 86.092 131.167 73.8329 131.167 73.8329C132.185 73.2293 132.185 72.7649 131.445 71.7898H131.491Z" fill="#F2A464"/>
</svg>
