<svg width="18" height="10" viewBox="0 0 18 10" fill="none" xmlns="http://www.w3.org/2000/svg">
<path d="M0.30102 9.71514C0.126889 9.54492 0.0208563 9.317 0.00281334 9.07416C-0.0152296 8.83132 0.0559576 8.59023 0.20302 8.39614L0.285021 8.30114L8.10202 0.301142C8.27026 0.12896 8.49496 0.0232427 8.73487 0.00340335C8.97477 -0.016436 9.21379 0.0509347 9.40802 0.193143L9.50402 0.273142L17.686 7.99614C17.8711 8.17067 17.9827 8.40919 17.9982 8.66313C18.0136 8.91706 17.9316 9.16733 17.769 9.36297C17.6064 9.55861 17.3753 9.68491 17.1228 9.71615C16.8703 9.7474 16.6154 9.68123 16.41 9.53114L16.314 9.45114L8.84502 2.40214L1.71502 9.69914C1.5448 9.87327 1.31688 9.97931 1.07404 9.99735C0.831194 10.0154 0.590111 9.94421 0.396021 9.79714L0.30102 9.71514Z" fill="#8E919E"/>
</svg>
